<mxfile host="app.diagrams.net" modified="2022-03-23T03:27:01.258Z" agent="5.0 (Macintosh; Intel Mac OS X 10_15_7) AppleWebKit/537.36 (KHTML, like Gecko) Chrome/98.0.4758.80 Safari/537.36" etag="nOzyaXbT9C8F3KmpBZGV" version="15.0.3" type="github">
  <diagram id="8QpduIdBwO649AF5rWgR" name="Page-1">
    <mxGraphModel dx="1186" dy="771" grid="1" gridSize="10" guides="1" tooltips="1" connect="1" arrows="1" fold="1" page="1" pageScale="1" pageWidth="827" pageHeight="1169" math="0" shadow="0">
      <root>
        <mxCell id="0" />
        <mxCell id="1" parent="0" />
        <mxCell id="oHdBT6Ih-1zLEwlm89ob-3" style="edgeStyle=orthogonalEdgeStyle;rounded=0;orthogonalLoop=1;jettySize=auto;html=1;" edge="1" parent="1" source="oHdBT6Ih-1zLEwlm89ob-1" target="oHdBT6Ih-1zLEwlm89ob-2">
          <mxGeometry relative="1" as="geometry" />
        </mxCell>
        <mxCell id="oHdBT6Ih-1zLEwlm89ob-1" value="start" style="rounded=0;whiteSpace=wrap;html=1;" vertex="1" parent="1">
          <mxGeometry x="310" y="90" width="120" height="60" as="geometry" />
        </mxCell>
        <mxCell id="oHdBT6Ih-1zLEwlm89ob-2" value="do" style="rounded=1;whiteSpace=wrap;html=1;" vertex="1" parent="1">
          <mxGeometry x="310" y="250" width="120" height="60" as="geometry" />
        </mxCell>
      </root>
    </mxGraphModel>
  </diagram>
</mxfile>
